<svg xmlns="http://www.w3.org/2000/svg">

  <symbol id="rss" viewBox="0 0 24 24"><rect x="0" y="0" fill="none" stroke="none" />
    <path fill="currentColor" d="M6.18 15.64a2.18 2.18 0 0 1 2.18 2.18C8.36 19 7.38 20 6.18 20C5 20 4 19 4 17.82a2.18 2.18 0 0 1 2.18-2.18M4 4.44A15.56 15.56 0 0 1 19.56 20h-2.83A12.73 12.73 0 0 0 4 7.27V4.44m0 5.66a9.9 9.9 0 0 1 9.9 9.9h-2.83A7.07 7.07 0 0 0 4 12.93V10.1Z"/>
  </symbol>

  <symbol id="darkMode" viewBox="0 0 24 24"><rect x="0" y="0" fill="none" stroke="none" />
    <path fill="currentColor" d="M12 21q-3.775 0-6.388-2.613T3 12q0-3.45 2.25-5.988T11 3.05q.625-.075.975.45t-.025 1.1q-.425.65-.638 1.375T11.1 7.5q0 2.25 1.575 3.825T16.5 12.9q.775 0 1.538-.225t1.362-.625q.525-.35 1.075-.037t.475.987q-.35 3.45-2.937 5.725T12 21Zm0-2q2.2 0 3.95-1.213t2.55-3.162q-.5.125-1 .2t-1 .075q-3.075 0-5.238-2.163T9.1 7.5q0-.5.075-1t.2-1q-1.95.8-3.163 2.55T5 12q0 2.9 2.05 4.95T12 19Zm-.25-6.75Z"/>
  </symbol>

  <symbol id="lightMode" viewBox="0 0 24 24"><rect x="0" y="0" fill="none" stroke="none" />
    <path fill="currentColor" d="M12 15q1.25 0 2.125-.875T15 12q0-1.25-.875-2.125T12 9q-1.25 0-2.125.875T9 12q0 1.25.875 2.125T12 15Zm0 2q-2.075 0-3.538-1.463T7 12q0-2.075 1.463-3.538T12 7q2.075 0 3.538 1.463T17 12q0 2.075-1.463 3.538T12 17ZM2 13q-.425 0-.713-.288T1 12q0-.425.288-.713T2 11h2q.425 0 .713.288T5 12q0 .425-.288.713T4 13H2Zm18 0q-.425 0-.713-.288T19 12q0-.425.288-.713T20 11h2q.425 0 .713.288T23 12q0 .425-.288.713T22 13h-2Zm-8-8q-.425 0-.713-.288T11 4V2q0-.425.288-.713T12 1q.425 0 .713.288T13 2v2q0 .425-.288.713T12 5Zm0 18q-.425 0-.713-.288T11 22v-2q0-.425.288-.713T12 19q.425 0 .713.288T13 20v2q0 .425-.288.713T12 23ZM5.65 7.05L4.575 6q-.3-.275-.288-.7t.288-.725q.3-.3.725-.3t.7.3L7.05 5.65q.275.3.275.7t-.275.7q-.275.3-.687.288T5.65 7.05ZM18 19.425l-1.05-1.075q-.275-.3-.275-.713t.275-.687q.275-.3.688-.287t.712.287L19.425 18q.3.275.288.7t-.288.725q-.3.3-.725.3t-.7-.3ZM16.95 7.05q-.3-.275-.288-.687t.288-.713L18 4.575q.275-.3.7-.288t.725.288q.3.3.3.725t-.3.7L18.35 7.05q-.3.275-.7.275t-.7-.275ZM4.575 19.425q-.3-.3-.3-.725t.3-.7l1.075-1.05q.3-.275.712-.275t.688.275q.3.275.288.688t-.288.712L6 19.425q-.275.3-.7.288t-.725-.288ZM12 12Z"/>
  </symbol>

  <symbol id="chevronLeft" viewBox="0 0 24 24"><rect x="0" y="0" fill="none" stroke="none" />
    <path fill="currentColor" d="M15.41 16.58L10.83 12l4.58-4.59L14 6l-6 6l6 6l1.41-1.42Z"/>
  </symbol>

  <symbol id="chevronRight" viewBox="0 0 24 24"><rect x="0" y="0" fill="none" stroke="none" />
    <path fill="currentColor" d="M8.59 16.58L13.17 12L8.59 7.41L10 6l6 6l-6 6l-1.41-1.42Z"/>
  </symbol>

  <symbol id="mail" viewBox="0 0 24 24"><rect x="0" y="0" fill="none" stroke="none" />
    <path fill="currentColor" d="M20 4H4a2 2 0 0 0-2 2v12a2 2 0 0 0 2 2h16a2 2 0 0 0 2-2V6a2 2 0 0 0-2-2Zm0 4.2-8 5.3-8-5.3V6l8 5.3L20 6v2.2Z"/>
  </symbol>

  <symbol id="github" viewBox="0 0 24 24"><rect x="0" y="0" fill="none" stroke="none" />
    <path fill="currentColor" d="M12 2a10 10 0 0 0-3.16 19.49c.5.09.68-.22.68-.48v-1.7c-2.78.6-3.37-1.18-3.37-1.18-.45-1.15-1.11-1.46-1.11-1.46-.91-.62.07-.61.07-.61 1 .07 1.53 1.03 1.53 1.03.9 1.52 2.35 1.08 2.92.83.09-.65.35-1.08.63-1.33-2.22-.25-4.55-1.11-4.55-4.94 0-1.09.39-1.98 1.03-2.68-.1-.25-.45-1.27.1-2.64 0 0 .84-.27 2.75 1.02A9.58 9.58 0 0 1 12 7c.85 0 1.71.11 2.51.34 1.91-1.29 2.75-1.02 2.75-1.02.55 1.37.2 2.39.1 2.64.64.7 1.03 1.59 1.03 2.68 0 3.84-2.34 4.69-4.57 4.93.36.31.68.92.68 1.85v2.74c0 .27.18.58.69.48A10 10 0 0 0 12 2Z"/>
  </symbol>

  <symbol id="linkedin" viewBox="0 0 24 24"><rect x="0" y="0" fill="none" stroke="none" />
    <path fill="currentColor" d="M4.98 3.5a2.5 2.5 0 1 1 0 5 2.5 2.5 0 0 1 0-5ZM3 9h4v12H3V9Zm7 0h3.8v1.64h.05c.53-1 1.82-2.05 3.75-2.05 4.01 0 4.75 2.64 4.75 6.07V21h-4v-5.63c0-1.34-.02-3.06-1.86-3.06-1.87 0-2.15 1.46-2.15 2.97V21h-4V9Z"/>
  </symbol>

  <symbol id="twitter" viewBox="0 0 24 24"><rect x="0" y="0" fill="none" stroke="none" />
    <path fill="currentColor" d="M22 5.92c-.73.32-1.51.54-2.33.64a4.05 4.05 0 0 0 1.78-2.24 8.1 8.1 0 0 1-2.57.98 4.04 4.04 0 0 0-6.99 2.76c0 .32.04.63.1.93A11.47 11.47 0 0 1 3.67 4.77a4.03 4.03 0 0 0 1.25 5.39 4 4 0 0 1-1.83-.5v.05a4.04 4.04 0 0 0 3.24 3.96 4.04 4.04 0 0 1-1.82.07 4.05 4.05 0 0 0 3.77 2.8A8.1 8.1 0 0 1 2 18.3a11.43 11.43 0 0 0 6.2 1.82c7.44 0 11.51-6.16 11.51-11.5v-.53A8.2 8.2 0 0 0 22 5.92Z"/>
  </symbol>
</svg>
