<svg xmlns="http://www.w3.org/2000/svg">

  <symbol id="email" viewBox="0 0 24 24"><rect x="0" y="0" fill="none" stroke="none" />
    <path fill="currentColor" id="Subtract" fill-rule="evenodd" clip-rule="evenodd" d="M7 2.75C5.38503 2.75 3.92465 3.15363 2.86466 4.1379C1.79462 5.13152 1.25 6.60705 1.25 8.5V15.5C1.25 17.393 1.79462 18.8685 2.86466 19.8621C3.92465 20.8464 5.38503 21.25 7 21.25H17C18.615 21.25 20.0754 20.8464 21.1353 19.8621C22.2054 18.8685 22.75 17.393 22.75 15.5V8.5C22.75 6.60705 22.2054 5.13152 21.1353 4.1379C20.0754 3.15363 18.615 2.75 17 2.75H7ZM19.2285 8.3623C19.5562 8.10904 19.6166 7.63802 19.3633 7.31026C19.1101 6.98249 18.6391 6.9221 18.3113 7.17537L12.7642 11.4616C12.3141 11.8095 11.6858 11.8095 11.2356 11.4616L5.6886 7.17537C5.36083 6.9221 4.88982 6.98249 4.63655 7.31026C4.38328 7.63802 4.44367 8.10904 4.77144 8.3623L10.3185 12.6486C11.3089 13.4138 12.691 13.4138 13.6814 12.6486L19.2285 8.3623Z"/>
  </symbol>

  <symbol id="github" viewBox="0 0 24 24"><rect x="0" y="0" fill="none" stroke="none" />
    <path d="M9 19c-4.3 1.4 -4.3 -2.5 -6 -3m12 5v-3.5c0 -1 .1 -1.4 -.5 -2c2.8 -.3 5.5 -1.4 5.5 -6a4.6 4.6 0 0 0 -1.3 -3.2a4.2 4.2 0 0 0 -.1 -3.2s-1.1 -.3 -3.5 1.3a12.3 12.3 0 0 0 -6.2 0c-2.4 -1.6 -3.5 -1.3 -3.5 -1.3a4.2 4.2 0 0 0 -.1 3.2a4.6 4.6 0 0 0 -1.3 3.2c0 4.6 2.7 5.7 5.5 6c-.6 .6 -.6 1.2 -.5 2v3.5"></path>
  </symbol>

  <symbol id="linkedin" viewBox="0 0 24 24"><rect x="0" y="0" fill="none" stroke="none" />
    <path fill="currentColor" d="M20.447 20.457h-3.565v-5.698c0-1.356-.025-3.102-1.894-3.102-1.896 0-2.184 1.474-2.184 3.008v5.792H9.24V9.083h3.421v1.57h.049c.477-.905 1.64-1.856 3.376-1.856 3.61 0 4.275 2.373 4.275 5.46v6.205zM5.337 7.424a2.008 2.008 0 1 1 0-4.016 2.008 2.008 0 0 1 0 4.016zm1.782 13.033H3.555V9.083h3.564v11.374z"/>
  </symbol>

  <symbol id="rss" viewBox="0 0 24 24"><rect x="0" y="0" fill="none" stroke="none" />
    <path fill="currentColor" d="M6.18 15.64a2.18 2.18 0 0 1 2.18 2.18C8.36 19 7.38 20 6.18 20C5 20 4 19 4 17.82a2.18 2.18 0 0 1 2.18-2.18M4 4.44A15.56 15.56 0 0 1 19.56 20h-2.83A12.73 12.73 0 0 0 4 7.27V4.44m0 5.66a9.9 9.9 0 0 1 9.9 9.9h-2.83A7.07 7.07 0 0 0 4 12.93V10.1Z"/>
  </symbol>

  <symbol id="twitter" viewBox="0 0 24 24"><rect x="0" y="0" fill="none" stroke="none" />
    <path d="M22 4.01c-1 .49 -1.98 .689 -3 .99c-1.121 -1.265 -2.783 -1.335 -4.38 -.737s-2.643 2.06 -2.62 3.737v1c-3.245 .083 -6.135 -1.395 -8 -4c0 0 -4.182 7.433 4 11c-1.872 1.247 -3.739 2.088 -6 2c3.308 1.803 6.913 2.423 10.034 1.517c3.58 -1.04 6.522 -3.723 7.651 -7.742a13.84 13.84 0 0 0 .497 -3.753c-.002 -.249 1.51 -2.772 1.818 -4.013z"></path>
  </symbol>

  <symbol id="darkMode" viewBox="0 0 24 24"><rect x="0" y="0" fill="none" stroke="none" />
    <path fill="currentColor" d="M12 21q-3.775 0-6.388-2.613T3 12q0-3.45 2.25-5.988T11 3.05q.625-.075.975.45t-.025 1.1q-.425.65-.638 1.375T11.1 7.5q0 2.25 1.575 3.825T16.5 12.9q.775 0 1.538-.225t1.362-.625q.525-.35 1.075-.037t.475.987q-.35 3.45-2.937 5.725T12 21Zm0-2q2.2 0 3.95-1.213t2.55-3.162q-.5.125-1 .2t-1 .075q-3.075 0-5.238-2.163T9.1 7.5q0-.5.075-1t.2-1q-1.95.8-3.163 2.55T5 12q0 2.9 2.05 4.95T12 19Zm-.25-6.75Z"/>
  </symbol>

  <symbol id="lightMode" viewBox="0 0 24 24"><rect x="0" y="0" fill="none" stroke="none" />
    <path fill="currentColor" d="M12 15q1.25 0 2.125-.875T15 12q0-1.25-.875-2.125T12 9q-1.25 0-2.125.875T9 12q0 1.25.875 2.125T12 15Zm0 2q-2.075 0-3.538-1.463T7 12q0-2.075 1.463-3.538T12 7q2.075 0 3.538 1.463T17 12q0 2.075-1.463 3.538T12 17ZM2 13q-.425 0-.713-.288T1 12q0-.425.288-.713T2 11h2q.425 0 .713.288T5 12q0 .425-.288.713T4 13H2Zm18 0q-.425 0-.713-.288T19 12q0-.425.288-.713T20 11h2q.425 0 .713.288T23 12q0 .425-.288.713T22 13h-2Zm-8-8q-.425 0-.713-.288T11 4V2q0-.425.288-.713T12 1q.425 0 .713.288T13 2v2q0 .425-.288.713T12 5Zm0 18q-.425 0-.713-.288T11 22v-2q0-.425.288-.713T12 19q.425 0 .713.288T13 20v2q0 .425-.288.713T12 23ZM5.65 7.05L4.575 6q-.3-.275-.288-.7t.288-.725q.3-.3.725-.3t.7.3L7.05 5.65q.275.3.275.7t-.275.7q-.275.3-.687.288T5.65 7.05ZM18 19.425l-1.05-1.075q-.275-.3-.275-.713t.275-.687q.275-.3.688-.287t.712.287L19.425 18q.3.275.288.7t-.288.725q-.3.3-.725.3t-.7-.3ZM16.95 7.05q-.3-.275-.288-.687t.288-.713L18 4.575q.275-.3.7-.288t.725.288q.3.3.3.725t-.3.7L18.35 7.05q-.3.275-.7.275t-.7-.275ZM4.575 19.425q-.3-.3-.3-.725t.3-.7l1.075-1.05q.3-.275.712-.275t.688.275q.3.275.288.688t-.288.712L6 19.425q-.275.3-.7.288t-.725-.288ZM12 12Z"/>
  </symbol>

  <symbol id="chevronLeft" viewBox="0 0 24 24"><rect x="0" y="0" fill="none" stroke="none" />
    <path fill="currentColor" d="M15.41 16.58L10.83 12l4.58-4.59L14 6l-6 6l6 6l1.41-1.42Z"/>
  </symbol>

  <symbol id="chevronRight" viewBox="0 0 24 24"><rect x="0" y="0" fill="none" stroke="none" />
    <path fill="currentColor" d="M8.59 16.58L13.17 12L8.59 7.41L10 6l6 6l-6 6l-1.41-1.42Z"/>
  </symbol>
</svg>
